<svg xmlns="http://www.w3.org/2000/svg" viewBox="0 0 100 100" width="100" height="100">
  <defs>
    <linearGradient id="grad1" x1="0%" y1="0%" x2="100%" y2="100%">
      <stop offset="0%" style="stop-color:#667eea;stop-opacity:1" />
      <stop offset="100%" style="stop-color:#764ba2;stop-opacity:1" />
    </linearGradient>
  </defs>
  
  <!-- Background circle -->
  <circle cx="50" cy="50" r="48" fill="url(#grad1)" />
  
  <!-- Letter D -->
  <path d="M 30 25 L 30 75 L 50 75 C 65 75 70 65 70 50 C 70 35 65 25 50 25 Z M 38 33 L 50 33 C 60 33 62 40 62 50 C 62 60 60 67 50 67 L 38 67 Z" fill="white" />
  
  <!-- Stream lines -->
  <path d="M 75 35 L 85 35" stroke="white" stroke-width="2" stroke-linecap="round" opacity="0.8" />
  <path d="M 75 45 L 90 45" stroke="white" stroke-width="2" stroke-linecap="round" opacity="0.8" />
  <path d="M 75 55 L 85 55" stroke="white" stroke-width="2" stroke-linecap="round" opacity="0.8" />
  <path d="M 75 65 L 90 65" stroke="white" stroke-width="2" stroke-linecap="round" opacity="0.8" />
</svg>
