<svg width="191" height="51" viewBox="0 0 191 51" fill="none" xmlns="http://www.w3.org/2000/svg">
<path d="M57.2549 29.7193H60.0849C60.6387 29.7193 61.0282 29.6068 61.2532 29.3817C61.4955 29.1394 61.6167 28.7413 61.6167 28.1874V20.2687C61.6167 19.7148 61.4955 19.3254 61.2532 19.1004C61.0282 18.858 60.6387 18.7369 60.0849 18.7369H57.2549C57.0645 18.7369 56.9693 18.8321 56.9693 19.0225V29.4337C56.9693 29.6241 57.0645 29.7193 57.2549 29.7193ZM53.672 32.03V16.4262C53.672 16.0627 53.8537 15.8809 54.2172 15.8809H60.6301C61.9802 15.8809 63.0273 16.2531 63.7716 16.9974C64.5332 17.7243 64.914 18.7628 64.914 20.1129V28.3432C64.914 29.6933 64.5332 30.7405 63.7716 31.4847C63.0273 32.2117 61.9802 32.5752 60.6301 32.5752H54.2172C53.8537 32.5752 53.672 32.3935 53.672 32.03ZM69.7622 32.5752H67.2697C66.9582 32.5752 66.8543 32.3935 66.9582 32.03L71.0603 16.4262C71.1815 16.0627 71.4411 15.8809 71.8392 15.8809H75.2923C75.725 15.8809 75.9847 16.0627 76.0712 16.4262L80.1734 32.03C80.2772 32.3935 80.1734 32.5752 79.8618 32.5752H77.3694C77.179 32.5752 77.0491 32.5406 76.9799 32.4713C76.9107 32.3848 76.8588 32.2377 76.8241 32.03L76.0972 29.174H71.0344L70.3074 32.03C70.2728 32.2377 70.2122 32.3848 70.1257 32.4713C70.0564 32.5406 69.9353 32.5752 69.7622 32.5752ZM73.5268 19.0225L71.6575 26.5258H75.5L73.6307 19.0225H73.5268ZM85.2268 32.5752H83.02C82.6565 32.5752 82.4748 32.3935 82.4748 32.03V16.4262C82.4748 16.0627 82.6565 15.8809 83.02 15.8809H89.1992C90.5493 15.8809 91.6051 16.2531 92.3667 16.9974C93.1283 17.7416 93.5091 18.7888 93.5091 20.1389V22.164C93.5091 24.1199 92.7388 25.418 91.1983 26.0585V26.1623L93.9764 31.9521C94.1322 32.3675 93.985 32.5752 93.535 32.5752H91.432C91.1205 32.5752 90.8954 32.5406 90.757 32.4713C90.6185 32.4021 90.506 32.255 90.4194 32.03L87.8231 26.4219H86.0836C85.8759 26.4219 85.7721 26.5171 85.7721 26.7075V32.03C85.7721 32.3935 85.5903 32.5752 85.2268 32.5752ZM86.0577 23.7737H88.602C89.1559 23.7737 89.5627 23.6612 89.8223 23.4362C90.0819 23.1939 90.2117 22.8131 90.2117 22.2938V20.2687C90.2117 19.7321 90.0819 19.3427 89.8223 19.1004C89.5627 18.858 89.1559 18.7369 88.602 18.7369H86.0577C85.8673 18.7369 85.7721 18.8321 85.7721 19.0225V23.4881C85.7721 23.6785 85.8673 23.7737 86.0577 23.7737ZM101.84 32.5752H99.6591C99.2783 32.5752 99.0879 32.3935 99.0879 32.03V19.0225C99.0879 18.8321 98.9927 18.7369 98.8023 18.7369H95.8425C95.479 18.7369 95.2973 18.5551 95.2973 18.1917V16.4262C95.2973 16.0627 95.479 15.8809 95.8425 15.8809H105.657C106.02 15.8809 106.202 16.0627 106.202 16.4262V18.1917C106.202 18.5551 106.02 18.7369 105.657 18.7369H102.697C102.489 18.7369 102.385 18.8321 102.385 19.0225V32.03C102.385 32.3935 102.203 32.5752 101.84 32.5752ZM107.769 28.3173V27.798C107.769 27.4345 107.951 27.2528 108.314 27.2528H110.521C110.884 27.2528 111.066 27.4345 111.066 27.798V28.0057C111.066 28.6634 111.196 29.1135 111.456 29.3558C111.715 29.5981 112.191 29.7193 112.884 29.7193H114.104C114.779 29.7193 115.246 29.5894 115.506 29.3298C115.783 29.0702 115.921 28.5855 115.921 27.8759V27.5643C115.921 27.0624 115.714 26.6816 115.298 26.4219C114.9 26.145 114.398 25.9806 113.792 25.9287C113.186 25.8767 112.529 25.7815 111.819 25.6431C111.127 25.4873 110.478 25.2969 109.872 25.0719C109.266 24.8295 108.755 24.3709 108.34 23.6958C107.942 23.0035 107.743 22.1207 107.743 21.0476V20.1389C107.743 18.7888 108.124 17.7416 108.885 16.9974C109.647 16.2531 110.703 15.8809 112.053 15.8809H114.649C116.016 15.8809 117.081 16.2531 117.843 16.9974C118.604 17.7416 118.985 18.7888 118.985 20.1389V20.6322C118.985 20.9957 118.803 21.1774 118.44 21.1774H116.233C115.869 21.1774 115.688 20.9957 115.688 20.6322V20.4764C115.688 19.8014 115.558 19.3427 115.298 19.1004C115.039 18.858 114.563 18.7369 113.87 18.7369H112.858C112.148 18.7369 111.663 18.8753 111.404 19.1523C111.161 19.4119 111.04 19.9312 111.04 20.7101V21.2034C111.04 22.0169 111.75 22.4842 113.169 22.6054C114.64 22.7265 115.947 23.0208 117.09 23.4881C117.695 23.7478 118.197 24.2151 118.595 24.8901C119.011 25.5479 119.219 26.396 119.219 27.4345V28.3173C119.219 29.6673 118.838 30.7145 118.076 31.4588C117.315 32.2031 116.259 32.5752 114.909 32.5752H112.079C110.729 32.5752 109.673 32.2031 108.911 31.4588C108.15 30.7145 107.769 29.6673 107.769 28.3173ZM127.347 32.5752H125.166C124.785 32.5752 124.595 32.3935 124.595 32.03V19.0225C124.595 18.8321 124.499 18.7369 124.309 18.7369H121.349C120.986 18.7369 120.804 18.5551 120.804 18.1917V16.4262C120.804 16.0627 120.986 15.8809 121.349 15.8809H131.163C131.527 15.8809 131.708 16.0627 131.708 16.4262V18.1917C131.708 18.5551 131.527 18.7369 131.163 18.7369H128.203C127.996 18.7369 127.892 18.8321 127.892 19.0225V32.03C127.892 32.3935 127.71 32.5752 127.347 32.5752ZM136.443 32.5752H134.236C133.873 32.5752 133.691 32.3935 133.691 32.03V16.4262C133.691 16.0627 133.873 15.8809 134.236 15.8809H140.415C141.765 15.8809 142.821 16.2531 143.583 16.9974C144.344 17.7416 144.725 18.7888 144.725 20.1389V22.164C144.725 24.1199 143.955 25.418 142.415 26.0585V26.1623L145.193 31.9521C145.348 32.3675 145.201 32.5752 144.751 32.5752H142.648C142.337 32.5752 142.112 32.5406 141.973 32.4713C141.835 32.4021 141.722 32.255 141.636 32.03L139.039 26.4219H137.3C137.092 26.4219 136.988 26.5171 136.988 26.7075V32.03C136.988 32.3935 136.807 32.5752 136.443 32.5752ZM137.274 23.7737H139.818C140.372 23.7737 140.779 23.6612 141.039 23.4362C141.298 23.1939 141.428 22.8131 141.428 22.2938V20.2687C141.428 19.7321 141.298 19.3427 141.039 19.1004C140.779 18.858 140.372 18.7369 139.818 18.7369H137.274C137.083 18.7369 136.988 18.8321 136.988 19.0225V23.4881C136.988 23.6785 137.083 23.7737 137.274 23.7737ZM156.925 32.5752H148.435C148.071 32.5752 147.89 32.3935 147.89 32.03V16.4262C147.89 16.0627 148.071 15.8809 148.435 15.8809H156.925C157.271 15.8809 157.444 16.0627 157.444 16.4262V18.1917C157.444 18.5551 157.271 18.7369 156.925 18.7369H151.498C151.291 18.7369 151.187 18.8321 151.187 19.0225V22.3977C151.187 22.5881 151.291 22.6833 151.498 22.6833H155.938C156.302 22.6833 156.483 22.865 156.483 23.2285V24.994C156.483 25.3575 156.302 25.5392 155.938 25.5392H151.498C151.291 25.5392 151.187 25.6344 151.187 25.8248V29.4337C151.187 29.6241 151.291 29.7193 151.498 29.7193H156.925C157.271 29.7193 157.444 29.901 157.444 30.2645V32.03C157.444 32.3935 157.271 32.5752 156.925 32.5752ZM162.053 32.5752H159.56C159.249 32.5752 159.145 32.3935 159.249 32.03L163.351 16.4262C163.472 16.0627 163.732 15.8809 164.13 15.8809H167.583C168.016 15.8809 168.275 16.0627 168.362 16.4262L172.464 32.03C172.568 32.3935 172.464 32.5752 172.152 32.5752H169.66C169.47 32.5752 169.34 32.5406 169.27 32.4713C169.201 32.3848 169.149 32.2377 169.115 32.03L168.388 29.174H163.325L162.598 32.03C162.563 32.2377 162.503 32.3848 162.416 32.4713C162.347 32.5406 162.226 32.5752 162.053 32.5752ZM165.817 19.0225L163.948 26.5258H167.791L165.921 19.0225H165.817ZM185.852 15.8809H189.694C190.058 15.8809 190.239 16.0627 190.239 16.4262V32.03C190.239 32.3935 190.058 32.5752 189.694 32.5752H187.565C187.202 32.5752 187.02 32.3935 187.02 32.03V19.7235H186.916L184.268 28.4211C184.164 28.7673 183.948 28.9404 183.619 28.9404H181.438C181.109 28.9404 180.893 28.7673 180.789 28.4211L178.089 19.6975H177.985V32.03C177.985 32.2377 177.95 32.3848 177.881 32.4713C177.812 32.5406 177.665 32.5752 177.44 32.5752H175.311C174.947 32.5752 174.765 32.3935 174.765 32.03V16.4262C174.765 16.0627 174.947 15.8809 175.311 15.8809H179.179C179.421 15.8809 179.586 16.0021 179.672 16.2444L182.424 25.4094H182.58L185.358 16.2444C185.41 16.0021 185.575 15.8809 185.852 15.8809Z" fill="#42389E"/>
<path d="M0 31.3645V9.41504H13.1499C20.859 10.793 23.9108 16.8971 24.6135 18.3025L24.619 18.3135C25.3111 19.6977 27.3874 20.4691 27.3874 20.4691C27.3874 20.4691 27.4692 20.6748 31.6388 21.1807C31.6388 21.1807 42.4158 21.1807 42.4158 30.2769C42.4158 39.3731 31.6388 39.2742 31.6388 39.2742C31.6388 39.2742 27.6729 39.444 25.3111 38.681C23.9304 38.2349 23.2329 37.6767 21.9494 37.099L25.3111 33.3419C27.4318 34.0639 28.7848 34.2938 31.6388 34.2318C31.6388 34.2318 37.0768 33.9351 37.0768 30.2769C37.0768 26.6187 31.6388 25.9266 31.6388 25.9266L26.0032 25.1356C23.349 24.373 22.123 23.7277 20.6641 21.8728C18.6422 17.1003 17.086 15.3504 13.1499 14.7541H5.33906V27.904L0 31.3645Z" fill="#42389E"/>
<path d="M0 38.681L5.33906 33.3419H13.1499C17.9813 32.2002 19.7189 30.3512 20.6641 24.3446C22.6238 25.7819 23.7754 26.3509 26.0032 26.6187C23.8086 34.6962 20.9941 37.3369 13.1499 38.681H0Z" fill="#42389E"/>
<path d="M22.3449 11.3925L25.5088 15.1496C25.5088 15.1496 26.5964 13.7653 30.5513 13.5676C34.5061 13.3699 37.3734 16.7315 37.3734 16.7315L41.4271 14.3586C41.4271 14.3586 37.3734 8.62405 30.5513 9.01956C23.7291 9.41506 22.3449 11.3925 22.3449 11.3925Z" fill="#42389E"/>
<path d="M12.9512 9.39551V38.4637" stroke="white" stroke-width="2.16359"/>
</svg>
